<svg t="1731737266415" class="icon" viewBox="0 0 1024 1024" version="1.1" xmlns="http://www.w3.org/2000/svg" p-id="45006" width="64" height="64"><path d="M85.333333 107.52h762.88S938.666667 151.893333 938.666667 264.533333s-90.453333 157.013333-90.453334 157.013334H85.333333s90.453333-44.373333 90.453334-157.013334S85.333333 107.52 85.333333 107.52z" fill="#FFFFFF" p-id="45007"></path><path d="M848.213333 447.146667H85.333333c-11.946667 0-22.186667-8.533333-25.6-20.48-3.413333-11.946667 3.413333-23.893333 13.653334-29.013334 3.413333-1.706667 75.093333-39.253333 75.093333-134.826666S76.8 131.413333 73.386667 131.413333c-10.24-6.826667-15.36-18.773333-13.653334-29.013333 3.413333-11.946667 13.653333-20.48 25.6-20.48h762.88c3.413333 0 8.533333 1.706667 11.946667 3.413333 3.413333 1.706667 104.106667 52.906667 104.106667 180.906667S865.28 443.733333 860.16 445.44c-3.413333 1.706667-6.826667 1.706667-11.946667 1.706667z m-692.906666-51.2h687.786666c17.066667-10.24 71.68-49.493333 71.68-131.413334 0-81.92-54.613333-121.173333-71.68-131.413333H155.306667c23.893333 29.013333 46.08 71.68 46.08 131.413333s-22.186667 102.4-46.08 131.413334z" fill="#FFFFFF" p-id="45008"></path><path d="M938.666667 602.453333H175.786667S85.333333 646.826667 85.333333 759.466667s90.453333 157.013333 90.453334 157.013333H938.666667s-90.453333-44.373333-90.453334-157.013333 90.453333-157.013333 90.453334-157.013334z" fill="#FFFFFF" p-id="45009"></path><path d="M938.666667 942.08H175.786667c-3.413333 0-8.533333-1.706667-11.946667-3.413333-3.413333-1.706667-104.106667-52.906667-104.106667-180.906667S158.72 580.266667 163.84 578.56c3.413333-1.706667 6.826667-3.413333 11.946667-3.413333H938.666667c11.946667 0 22.186667 8.533333 25.6 20.48 3.413333 11.946667-3.413333 23.893333-13.653334 29.013333-3.413333 1.706667-75.093333 40.96-75.093333 134.826667 0 95.573333 75.093333 133.12 75.093333 134.826666 10.24 5.12 15.36 17.066667 13.653334 29.013334-3.413333 10.24-13.653333 18.773333-25.6 18.773333z m-756.053334-51.2H870.4c-23.893333-29.013333-46.08-71.68-46.08-131.413333s22.186667-102.4 46.08-131.413334H182.613333c-17.066667 10.24-71.68 49.493333-71.68 131.413334 0 80.213333 54.613333 121.173333 71.68 131.413333z" fill="#FFFFFF" p-id="45010"></path></svg>