<svg t="1731736812578" class="icon" viewBox="0 0 1024 1024" version="1.1" xmlns="http://www.w3.org/2000/svg" p-id="7622" width="64" height="64"><path d="M128 0h64v128a64 64 0 0 0 64 64h512a64 64 0 0 0 64-64V0h64a128 128 0 0 1 128 128v768a128 128 0 0 1-128 128H128A128 128 0 0 1 0 896V128A128 128 0 0 1 128 0z m641.152 355.776L465.216 659.712 289.344 454.528l-72.896 62.464 243.328 283.904L836.992 423.68l-67.84-67.904zM768 0v64a64 64 0 0 1-64 64H320a64 64 0 0 1-64-64V0h512z" p-id="7623" fill="#ffffff"></path></svg>